<?xml version="1.0" encoding="UTF-8"?>
<svg version="1.1" xmlns="http://www.w3.org/2000/svg" width="1254" height="1254">
<path d="M0 0 C0.61987793 0.26232422 1.23975586 0.52464844 1.87841797 0.79492188 C10.15524451 4.40426741 17.30535724 8.92943411 24 15 C24.78117188 15.69996094 25.56234375 16.39992188 26.3671875 17.12109375 C41.28551436 31.21062468 49.78424497 51.55179137 50.57470703 71.90380859 C50.94000554 95.30064623 43.95865394 116.52463254 27.61328125 133.4140625 C25.83321615 135.17550211 23.99310911 136.87780232 22.10546875 138.5234375 C21.41066406 139.34070313 20.71585938 140.15796875 20 141 C20.36970076 144.79263366 21.7388484 147.9931379 23.28515625 151.44921875 C23.73310547 152.46177734 24.18105469 153.47433594 24.64257812 154.51757812 C25.11115234 155.56365234 25.57972656 156.60972656 26.0625 157.6875 C26.99417152 159.77327485 27.92272395 161.86044667 28.84765625 163.94921875 C29.26023682 164.87049561 29.67281738 165.79177246 30.09790039 166.7409668 C31 169 31 169 31 171 C31.82242188 170.34773437 32.64484375 169.69546875 33.4921875 169.0234375 C51.57175709 154.81106826 51.57175709 154.81106826 59 155 C59.43487127 210.10139386 59.7696733 265.20261437 59.97024126 320.30538668 C59.99400474 326.81044614 60.01859686 333.31550222 60.04370117 339.82055664 C60.04868507 341.11559804 60.05366897 342.41063943 60.05880389 343.74492451 C60.14148401 364.71543059 60.29129161 385.68494725 60.46590313 406.65486632 C60.64357232 428.1714238 60.74911396 449.68746308 60.7876814 471.20472401 C60.81375569 484.48314849 60.89610066 497.75877661 61.05041287 511.0363402 C61.15083753 520.1409289 61.1812063 529.24407188 61.15652617 538.34917424 C61.14435082 543.60397091 61.16301348 548.85388317 61.26490402 554.10781097 C61.83229093 584.85312282 61.83229093 584.85312282 57.14449716 591.71672034 C52.75888652 595.76586253 48.01403387 597.74891768 42.31128561 599.29225099 C38.7903149 600.37042303 36.07773224 602.18312344 33.00390625 604.1953125 C31.94598877 604.83936035 30.88807129 605.4834082 29.7980957 606.14697266 C28.73034912 606.79972168 27.66260254 607.4524707 26.5625 608.125 C25.37538307 608.84837258 24.18812301 609.5715103 23.00073242 610.29443359 C20.55265156 611.78519827 18.10516415 613.2769292 15.65820312 614.76953125 C9.7138049 618.39487834 3.76345545 622.01042993 -2.1875 625.625 C-2.76569489 625.97630981 -3.34388977 626.32761963 -3.93960571 626.6895752 C-12.31797513 631.77943718 -20.71484673 636.83779268 -29.125 641.875 C-46.18146747 652.09268301 -63.10238686 662.5222351 -80 673 C-93.42874367 681.32438539 -106.87327848 689.62265033 -120.33203125 697.8984375 C-124.70624868 700.58820144 -129.07861778 703.28092636 -133.44921875 705.9765625 C-145.19642233 713.21928662 -156.96721266 720.42078614 -168.7699585 727.57247925 C-177.2007215 732.68164906 -185.60943736 737.82494795 -194 743 C-206.45340984 750.67912994 -218.95535117 758.27653582 -231.46777344 765.85888672 C-236.73118334 769.04880458 -241.9914828 772.24384534 -247.25201416 775.43850708 C-250.16788166 777.20921519 -253.08395105 778.97959074 -256 780.75 C-257.16666763 781.45833174 -258.3333343 782.16666507 -259.5 782.875 C-266.49999997 787.12499998 -266.49999997 787.12499998 -268.25006104 788.18753052 C-269.41653199 788.89574938 -270.58299521 789.60398099 -271.74945068 790.31222534 C-274.66904844 792.08491465 -277.58878094 793.85738126 -280.50878906 795.62939453 C-285.7238381 798.79444926 -290.93801281 801.96088672 -296.14697266 805.13595581 C-306.64704243 811.53588606 -317.15445534 817.92019039 -327.734375 824.1875 C-328.83250519 824.83810898 -328.83250519 824.83810898 -329.95281982 825.50186157 C-333.53087706 827.62049111 -337.11113147 829.73530282 -340.69433594 831.84521484 C-341.99415396 832.61293315 -343.29395929 833.38067295 -344.59375 834.1484375 C-345.18412048 834.49455078 -345.77449097 834.84066406 -346.38275146 835.19726562 C-348.76650037 836.60725036 -350.95172988 837.95702469 -353.02539062 839.80322266 C-355 841 -355 841 -357.88110352 840.89526367 C-361.31728633 839.90892454 -363.86605225 838.56077433 -366.90234375 836.67578125 C-367.7285321 836.1687114 -367.7285321 836.1687114 -368.57141113 835.65139771 C-370.36578916 834.54734614 -372.15149868 833.43004142 -373.9375 832.3125 C-375.18763145 831.54012345 -376.43837157 830.76873126 -377.68969727 829.99829102 C-380.23466571 828.42998355 -382.77664864 826.85700452 -385.31640625 825.28027344 C-390.66741134 821.96207776 -396.05395449 818.70252275 -401.4375 815.4375 C-413.44910361 808.12750285 -425.41452916 800.7447144 -437.36767578 793.33959961 C-445.6807286 788.19213268 -454.00859442 783.06888204 -462.33789062 777.94775391 C-469.12968412 773.77058026 -475.91211356 769.57872104 -482.6875 765.375 C-489.87185525 760.91829925 -497.0842691 756.51013898 -504.3125 752.125 C-514.31962541 746.05133074 -524.25265754 739.86435163 -534.171875 733.6484375 C-548.50770247 724.66610131 -562.92214959 715.81008745 -577.33398438 706.95043945 C-583.32312339 703.26750902 -589.30481903 699.57308736 -595.27734375 695.86328125 C-602.81618506 691.18126402 -610.3815083 686.55136496 -618 682 C-625.26556914 677.65055354 -632.52272858 673.28785229 -639.75 668.875 C-640.67425781 668.318125 -641.59851563 667.76125 -642.55078125 667.1875 C-643.81728516 666.41019531 -643.81728516 666.41019531 -645.109375 665.6171875 C-645.86186523 665.15940918 -646.61435547 664.70163086 -647.38964844 664.22998047 C-647.92106445 663.82408691 -648.45248047 663.41819336 -649 663 C-649 662.34 -649 661.68 -649 661 C-647.27734375 659.51953125 -647.27734375 659.51953125 -644.9375 657.8125 C-637.46796258 652.31838137 -637.46796258 652.31838137 -632 645 C-632.55107422 644.90920166 -633.10214844 644.81840332 -633.66992188 644.72485352 C-636.67471802 643.79010501 -638.73417127 642.24933382 -641.28125 640.40234375 C-642.79138672 639.32436523 -642.79138672 639.32436523 -644.33203125 638.22460938 C-646.44586584 636.69853027 -648.55784486 635.16987769 -650.66796875 633.63867188 C-651.67472656 632.92130859 -652.68148437 632.20394531 -653.71875 631.46484375 C-654.63591797 630.800896 -655.55308594 630.13694824 -656.49804688 629.45288086 C-659.09431182 627.66521992 -659.09431182 627.66521992 -663 628 C-665.23073623 629.16829972 -665.23073623 629.16829972 -667.5 630.75 C-682.52577979 640.06422607 -702.78270309 642.26909477 -720.1328125 639.5 C-722.82930143 638.80818943 -725.38790457 637.9611271 -728 637 C-729.03382813 636.6596875 -730.06765625 636.319375 -731.1328125 635.96875 C-749.58968728 629.51102549 -764.48243454 616.45291838 -773.75 599.25 C-775.77228771 594.91050761 -777.28983974 590.42775869 -778.75 585.875 C-778.96108398 585.21790039 -779.17216797 584.56080078 -779.38964844 583.88378906 C-785.39095866 564.16519833 -781.81213104 543.24370894 -773 525 C-765.28038845 511.30391498 -755.17559712 501.28871116 -742 493 C-741.21367188 492.47664063 -740.42734375 491.95328125 -739.6171875 491.4140625 C-736.18206077 489.55806865 -732.66980606 488.48340253 -728.9375 487.375 C-728.23044922 487.1584375 -727.52339844 486.941875 -726.79492188 486.71875 C-710.07493939 481.63210744 -690.0022433 482.65663927 -674 490 C-668.76466047 492.98186135 -663.85131047 496.43595604 -659 500 C-658.26523437 500.53882813 -657.53046875 501.07765625 -656.7734375 501.6328125 C-643.43690969 512.28985527 -633.13961497 530.929147 -630.390625 547.72265625 C-628.85771676 562.04121818 -627.94495501 579.13653694 -635.1953125 592.14453125 C-636.14957456 593.97702332 -636.14957456 593.97702332 -635.91796875 596.05078125 C-634.61549181 598.81646633 -632.93253164 599.6384302 -630.3125 601.1875 C-629.3328125 601.78046875 -628.353125 602.3734375 -627.34375 602.984375 C-626.2403125 603.64953125 -625.136875 604.3146875 -624 605 C-621.42688171 606.62946437 -618.86958896 608.28302845 -616.3125 609.9375 C-615.10044734 610.71773837 -613.88822338 611.49771073 -612.67578125 612.27734375 C-611.79277344 612.84582031 -610.90976562 613.41429687 -610 614 C-609.7215625 613.12472656 -609.443125 612.24945312 -609.15625 611.34765625 C-608.09304543 608.26939167 -606.87585563 605.3863613 -605.5 602.4375 C-603.89633533 598.99059881 -602.39993933 595.53425488 -601 592 C-593.6762212 595.91714528 -586.513513 600.02761264 -579.4375 604.375 C-578.45934326 604.97296387 -577.48118652 605.57092773 -576.47338867 606.18701172 C-567.8059702 611.49057625 -559.15875026 616.82712452 -550.51049805 622.16186523 C-542.97574444 626.80337288 -535.39918293 631.36941101 -527.796875 635.89916992 C-521.85269203 639.4540124 -516.01998831 643.15200263 -510.23828125 646.96484375 C-507.78228569 648.50835845 -505.34215142 649.93187727 -502.80078125 651.3203125 C-497.35553518 654.31134709 -492.12567242 657.62005913 -486.875 660.9375 C-478.72364671 666.06099182 -470.54500746 671.13291769 -462.3125 676.125 C-450.66029134 683.19361025 -439.07115406 690.36127014 -427.49658203 697.55615234 C-415.51600652 705.00264913 -403.48746429 712.36614287 -391.41772461 719.66699219 C-385.81920651 723.05610652 -380.23456843 726.46443054 -374.6875 729.9375 C-373.72199219 730.54142578 -372.75648438 731.14535156 -371.76171875 731.76757812 C-369.96966532 732.89173045 -368.18042066 734.02037759 -366.39453125 735.15429688 C-365.60433594 735.64994141 -364.81414062 736.14558594 -364 736.65625 C-363.319375 737.08744141 -362.63875 737.51863281 -361.9375 737.96289062 C-359.85244444 739.07898387 -358.36169515 739.77249596 -356 740 C-353.66782426 739.05892361 -353.66782426 739.05892361 -351.31640625 737.4921875 C-350.39964111 736.92419434 -349.48287598 736.35620117 -348.53833008 735.77099609 C-347.55630615 735.14531738 -346.57428223 734.51963867 -345.5625 733.875 C-344.53987061 733.23771973 -343.51724121 732.60043945 -342.46362305 731.94384766 C-340.33906183 730.61876091 -338.21775208 729.28844771 -336.09960938 727.953125 C-331.52011627 725.06749608 -326.91589396 722.22227636 -322.3125 719.375 C-321.45132568 718.84044189 -320.59015137 718.30588379 -319.70288086 717.75512695 C-313.05865833 713.63519688 -306.36728266 709.59872024 -299.65722656 705.5871582 C-285.97207103 697.40255746 -272.35904207 689.09944453 -258.8125 680.6875 C-247.13144594 673.4355401 -235.37202823 666.31353591 -223.61279297 659.18945312 C-218.32029169 655.98269736 -213.03131609 652.77013617 -207.74212646 649.55792236 C-205.99762692 648.49855893 -204.25298794 647.43942552 -202.50830078 646.38037109 C-197.2288742 643.17560412 -191.94991893 639.97007106 -186.67300415 636.76116943 C-173.95037466 629.02459164 -161.21191082 621.31630817 -148.43725586 613.66577148 C-137.64052083 607.19490608 -126.88220468 600.66128942 -116.12869263 594.11894226 C-112.19711211 591.72712675 -108.26312208 589.33931469 -104.328125 586.953125 C-102.2603934 585.697955 -100.19268393 584.44274853 -98.125 583.1875 C-97.18640137 582.61894287 -96.24780273 582.05038574 -95.28076172 581.46459961 C-91.63302832 579.24791043 -88.00819064 577.03463965 -84.4921875 574.61328125 C-82 573 -82 573 -80 573 C-80 572.34 -80 571.68 -80 571 C-80.71357666 570.73227783 -81.42715332 570.46455566 -82.16235352 570.1887207 C-85.06292346 568.97364068 -87.6824972 567.55749071 -90.40234375 565.98046875 C-91.44729004 565.3764624 -92.49223633 564.77245605 -93.56884766 564.15014648 C-94.68050293 563.50247314 -95.7921582 562.8547998 -96.9375 562.1875 C-98.09676665 561.51427376 -99.25611004 560.84117964 -100.41552734 560.16821289 C-103.37299472 558.4499768 -106.32746486 556.72664908 -109.28131104 555.00219727 C-110.93292116 554.03911483 -112.58629731 553.07906296 -114.23974609 552.11914062 C-117.20477779 550.39747903 -120.16559846 548.66881756 -123.125 546.9375 C-124.00534912 546.42662842 -124.88569824 545.91575684 -125.79272461 545.3894043 C-129.8117281 543.0248964 -133.77430972 540.58391121 -137.6171875 537.94140625 C-138.27058105 537.49611572 -138.92397461 537.0508252 -139.59716797 536.59204102 C-141 535 -141 535 -141.35131836 532.4777832 C-140.82243955 528.74769906 -138.36981935 527.01962193 -135.6875 524.625 C-121.65776198 511.31500319 -112.46247768 494.55401316 -104.19140625 477.2578125 C-103 475 -103 475 -101 473 C-97.79831859 473.37785383 -95.47758979 474.77639779 -92.7890625 476.484375 C-91.96809082 477.00056396 -91.14711914 477.51675293 -90.30126953 478.04858398 C-88.97651611 478.89078491 -88.97651611 478.89078491 -87.625 479.75 C-80.18521536 484.42036645 -72.7027719 488.99443761 -65.125 493.4375 C-54.64532829 499.59057245 -44.26035401 505.89255584 -33.89746094 512.23999023 C-31.20995859 513.87246448 -28.51558851 515.49274585 -25.81890869 517.11000061 C-24.46593878 517.9214911 -24.46593878 517.9214911 -23.08563614 518.74937534 C-22.39737621 519.16208148 -21.70911629 519.57478762 -21 520 C-21.00075944 519.3130693 -21.00151888 518.6261386 -21.00230134 517.91839182 C-21.0470167 477.24323108 -21.08135246 436.56807318 -21.10213066 395.89289282 C-21.1046322 391.01355611 -21.10722083 386.13421945 -21.10986328 381.25488281 C-21.11065021 379.79774504 -21.11065021 379.79774504 -21.11145304 378.31117015 C-21.12016563 362.56328837 -21.13594028 346.81542113 -21.15430559 331.06754799 C-21.17298093 314.91966204 -21.1841117 298.77178373 -21.18817699 282.62388742 C-21.19092697 272.65251192 -21.19962558 262.68117751 -21.21583293 252.70981465 C-21.22637065 245.8804787 -21.22960795 239.05116411 -21.22700275 232.22182061 C-21.22571643 228.27632546 -21.22774607 224.33090232 -21.23841095 220.38541985 C-21.24809081 216.77818565 -21.24866951 213.17107238 -21.24179779 209.5638328 C-21.24054274 207.63068955 -21.24921571 205.69754787 -21.25816262 203.76442492 C-21.25418052 202.62833926 -21.25019842 201.4922536 -21.24609566 200.3217411 C-21.2468551 199.33522769 -21.24761454 198.34871427 -21.24839699 197.3323065 C-21 195 -21 195 -19 193 C-16.72265625 192.1484375 -16.72265625 192.1484375 -14.0625 191.375 C-13.18722656 191.11460937 -12.31195312 190.85421875 -11.41015625 190.5859375 C-9 190 -9 190 -6 190 C-10.36410935 177.82549937 -10.36410935 177.82549937 -16.01953125 166.2109375 C-17.21801475 163.50838109 -17.61102364 160.919414 -18 158 C-19.24652344 158.03480469 -20.49304688 158.06960938 -21.77734375 158.10546875 C-40.32392274 158.47214686 -54.84384101 156.40327927 -71 147 C-71.87398437 146.50371094 -72.74796875 146.00742187 -73.6484375 145.49609375 C-88.57393682 136.30512838 -97.48108628 121.80128 -104 106 C-104.43828125 104.98035156 -104.8765625 103.96070313 -105.328125 102.91015625 C-112.07983878 84.05765968 -109.49993217 60.83547944 -101.3659668 42.94287109 C-91.71207271 22.79788885 -75.23159907 6.25306787 -53.99511719 -1.3503418 C-36.53137557 -7.22085929 -16.99566732 -7.22685722 0 0 Z " fill="#0391E6" transform="translate(986,278)"/>
<path d="M0 0 C3.58619379 1.82976867 7.0062435 3.89667823 10.4375 6 C11.42613037 6.59522461 12.41476074 7.19044922 13.43334961 7.80371094 C16.29397416 9.52759093 19.14755517 11.2626305 22 13 C24.35171364 14.42080331 26.70694721 15.83555459 29.0625 17.25 C29.62461182 17.5888623 30.18672363 17.92772461 30.76586914 18.27685547 C38.06330325 22.66403218 45.42673843 26.93981137 52.77728271 31.23712158 C61.44935074 36.30887756 70.08536985 41.43514888 78.6875 46.625 C88.38091988 52.4708874 98.15663012 58.1614058 107.97338867 63.79736328 C113.51434355 66.98077768 119.03710141 70.18439996 124.5 73.5 C131.12753138 77.5210688 137.84266728 81.38557495 144.5625 85.25 C153.5629757 90.4271225 162.53181009 95.65193149 171.46362305 100.9465332 C179.08801463 105.46532484 186.72831403 109.95658297 194.375 114.4375 C194.99165527 114.79887054 195.60831055 115.16024109 196.24365234 115.53256226 C208.4857774 122.70550719 220.74101978 129.85590486 233 137 C237.39607334 139.56208853 241.79185463 142.12467731 246.1875 144.6875 C247.1978833 145.27619873 248.2082666 145.86489746 249.24926758 146.47143555 C250.19181396 147.020979 251.13436035 147.57052246 252.10546875 148.13671875 C252.93199951 148.61842529 253.75853027 149.10013184 254.61010742 149.59643555 C257.08294516 151.04871302 259.54320004 152.52078062 262 154 C260.61308541 157.2221248 259.07563327 159.03354401 256.375 161.25 C238.69665996 176.38469399 228.41390711 195.77784646 221.12890625 217.6484375 C220 221 220 221 219 223 C212.80666941 221.36579344 207.64415984 218.05558423 202.1875 214.8125 C200.59905273 213.87700317 200.59905273 213.87700317 198.97851562 212.92260742 C190.60316819 207.97954654 182.26199545 202.97898462 173.92919922 197.96459961 C165.24191478 192.73709617 156.53167946 187.54909037 147.8125 182.375 C147.12802795 181.96881439 146.44355591 181.56262878 145.73834229 181.14413452 C134.68603195 174.58651763 123.62552919 168.04282043 112.55810547 161.51074219 C109.96621367 159.98004678 107.37552022 158.44734183 104.78515625 156.9140625 C91.42461696 149.00753139 78.03602704 141.14937862 64.63970947 133.30369568 C60.27448703 130.74704098 55.91037474 128.18849987 51.546875 125.62890625 C49.7026074 124.54718114 47.85832707 123.46547773 46.01403809 122.38378906 C44.80056009 121.67206796 43.58709968 120.96031686 42.37365723 120.24853516 C35.96281817 116.48843585 29.54863348 112.73430181 23.125 108.99609375 C22.03807861 108.36340576 20.95115723 107.73071777 19.83129883 107.07885742 C17.80838512 105.90205796 15.78483546 104.72635066 13.76049805 103.55200195 C12.85340088 103.02437256 11.94630371 102.49674316 11.01171875 101.953125 C10.15755371 101.45876953 9.30338867 100.96441406 8.42333984 100.45507812 C6.10302414 99.06186015 3.88329422 97.56620352 1.64453125 96.046875 C-0.68206546 94.60830124 -1.69577478 94.01593561 -4.4609375 93.87109375 C-8.38739297 95.61685626 -11.97918671 97.7958595 -15.625 100.0625 C-17.42906698 101.16507845 -19.23378943 102.26658492 -21.0390625 103.3671875 C-22.00360352 103.95725586 -22.96814453 104.54732422 -23.96191406 105.15527344 C-29.277982 108.38319125 -34.64250917 111.52899957 -40 114.6875 C-50.07692656 120.64292705 -60.09908396 126.68320544 -70.0949707 132.77352905 C-78.57282138 137.93773241 -87.09017277 143.02827602 -95.64941406 148.05639648 C-102.99737953 152.38316127 -110.28287313 156.8096881 -117.5625 161.25 C-127.15217427 167.0986475 -136.79627388 172.84268899 -146.5 178.5 C-157.31653532 184.80717765 -168.05258188 191.23441473 -178.74194336 197.75463867 C-179.8943511 198.45754804 -181.04677614 199.16042905 -182.19921875 199.86328125 C-182.7649913 200.20838242 -183.33076385 200.55348358 -183.91368103 200.90904236 C-189.9409197 204.58098825 -196.00265734 208.19473904 -202.0625 211.8125 C-210.11414041 216.62402219 -218.07978609 221.54633041 -225.98632812 226.59204102 C-232.68033284 230.84392632 -239.49756662 234.86815563 -246.33911133 238.87695312 C-253.41092232 243.03203116 -260.4023216 247.30596701 -267.375 251.625 C-280.52934905 259.76435241 -293.82802096 267.6503319 -307.14100647 275.52648926 C-316.6693822 281.16724176 -326.15693083 286.87621029 -335.64526367 292.58398438 C-338 294 -338 294 -340.60774249 295.24917775 C-343.21758974 296.7703109 -343.21758974 296.7703109 -343.62740451 299.45009297 C-343.62911325 300.92473687 -343.62911325 300.92473687 -343.63085651 302.42917156 C-343.64429515 303.56376487 -343.65773379 304.69835819 -343.67157966 305.86733311 C-343.6609064 307.11926184 -343.65023314 308.37119056 -343.63923645 309.66105652 C-343.64554458 311.00009274 -343.65404526 312.33912015 -343.66455668 313.67812997 C-343.6871277 317.365663 -343.67847367 321.05257263 -343.6648711 324.74012554 C-343.65563174 328.71358083 -343.6751357 332.68690508 -343.69119263 336.6603241 C-343.71506832 343.54715366 -343.72063245 350.43380422 -343.71384621 357.32066917 C-343.70406076 367.27794335 -343.72175671 377.23501854 -343.74621352 387.19226054 C-343.78514181 403.34619564 -343.80176834 419.50007397 -343.80444336 435.65405273 C-343.80708986 451.34841831 -343.82019403 467.04271752 -343.84741211 482.73706055 C-343.84992218 484.18755814 -343.84992218 484.18755814 -343.85248295 485.66735872 C-343.86094227 490.51838622 -343.86960771 495.36941332 -343.87837565 500.22044027 C-343.95087607 540.48028226 -343.98721396 580.74009761 -344 621 C-344.55545502 621.02080124 -345.11091003 621.04160248 -345.68319702 621.06303406 C-348.25529021 621.16357706 -350.82680199 621.27510144 -353.3984375 621.38671875 C-354.27169678 621.41922729 -355.14495605 621.45173584 -356.04467773 621.48522949 C-370.90812443 622.15521842 -384.76728683 626.0559319 -397.91796875 632.97265625 C-399.6775388 633.84088687 -401.49131125 634.5979314 -403.3125 635.328125 C-407.18517073 636.96943655 -410.43011934 639.21287611 -413.8125 641.6875 C-419.74302326 646 -419.74302326 646 -422 646 C-422.20589554 595.52677517 -422.36453386 545.05359269 -422.45958797 494.58003067 C-422.47084464 488.62431664 -422.48249351 482.66860343 -422.49438477 476.71289062 C-422.49674556 475.52719042 -422.49910635 474.34149022 -422.50153869 473.11985971 C-422.54072536 453.90850128 -422.61170007 434.69738467 -422.69437516 415.4861698 C-422.77847019 395.78099967 -422.82851444 376.07595639 -422.84679645 356.37061417 C-422.85915997 344.20631447 -422.89824002 332.04269816 -422.9712482 319.87860878 C-423.01873735 311.54286325 -423.03322024 303.20747221 -423.0215124 294.87160115 C-423.01573427 290.05835543 -423.02473291 285.24630569 -423.07284927 280.43327141 C-423.11656545 276.02831372 -423.11891796 271.62535881 -423.08809005 267.22030999 C-423.08427889 265.62528795 -423.09577206 264.03014228 -423.12394864 262.43536459 C-423.32231102 250.51702213 -423.32231102 250.51702213 -420.07408702 246.79049516 C-417.76813629 245.22311132 -415.55528161 244.10202109 -413 243 C-411.56536834 242.14790297 -410.14031206 241.27923159 -408.73046875 240.38671875 C-407.21732823 239.48499208 -405.70294008 238.58535666 -404.1875 237.6875 C-396.46780256 233.08513198 -388.7731443 228.44314066 -381.0949707 223.7718811 C-368.44827219 216.07815527 -355.76925026 208.44004343 -343.06738281 200.83764648 C-340.87829983 199.52618297 -338.69010335 198.21332056 -336.50292969 196.89868164 C-330.00984582 192.99665445 -323.50920716 189.10803498 -316.9921875 185.24609375 C-316.32465958 184.85048248 -315.65713165 184.45487122 -314.96937561 184.04727173 C-312.25621484 182.43972831 -309.54281324 180.83259495 -306.82861328 179.22680664 C-298.80204614 174.47703519 -290.81149073 169.68009657 -282.87792969 164.77612305 C-278.99936377 162.38245431 -275.09783235 160.02880439 -271.1875 157.6875 C-270.37837158 157.20240967 -269.56924316 156.71731934 -268.7355957 156.2175293 C-259.06794864 150.42965584 -249.37523508 144.68374674 -239.68237305 138.93823242 C-231.35289584 133.99964735 -223.03997958 129.03434425 -214.74032593 124.04580688 C-212.08424223 122.44969746 -209.4268514 120.85576854 -206.76953125 119.26171875 C-205.79282471 118.67567871 -204.81611816 118.08963867 -203.80981445 117.48583984 C-201.72897937 116.23737269 -199.6480831 114.98900753 -197.56713867 113.74072266 C-192.61634533 110.77076163 -187.66605954 107.79998005 -182.71875 104.82421875 C-173.23833714 99.12402368 -163.73175333 93.4706413 -154.20361328 87.85058594 C-144.77230623 82.28364464 -135.38456747 76.64525537 -126 71 C-112.2524313 62.73123823 -98.48535442 54.49700054 -84.6875 46.3125 C-69.21757146 37.13491427 -53.77822421 27.91051398 -38.40576172 18.5703125 C-35.95188442 17.07949575 -33.49643229 15.591329 -31.03955078 14.10546875 C-26.02853736 11.07260878 -21.02403985 8.03582653 -16.08984375 4.87890625 C-15.40124268 4.44473389 -14.7126416 4.01056152 -14.00317383 3.56323242 C-12.2887569 2.4786013 -10.58517295 1.37689524 -8.8828125 0.2734375 C-5.15562156 -1.37299102 -3.87945031 -1.28851516 0 0 Z " fill="#04D1B1" transform="translate(631,106)"/>
<path d="M0 0 C1.01578125 0.37382813 2.0315625 0.74765625 3.078125 1.1328125 C16.14047505 6.19028649 26.09414502 13.33962539 36 23 C36.65742187 23.58394531 37.31484375 24.16789063 37.9921875 24.76953125 C47.64519881 33.55510606 53.43533734 46.01407933 58 58 C58.31710937 58.82242188 58.63421875 59.64484375 58.9609375 60.4921875 C67.50973366 84.27646198 64.47088905 111.809844 54.23046875 134.4140625 C42.8884928 158.32900348 24.22662234 174.34908557 -0.5546875 183.28125 C-22.60769715 190.41155335 -46.98225742 188.13399403 -67.9765625 178.65625 C-78.94590643 172.96610041 -94.49903302 163.53640325 -99.35394955 151.69866657 C-101.24810436 147.42118922 -102.94328304 144.46122005 -107 142 C-116.12794988 139.53664667 -126.12730672 140.269239 -135.52106225 140.40660393 C-139.50267351 140.45055166 -143.48379132 140.41915427 -147.46548462 140.39706421 C-154.35760734 140.36906629 -161.24827875 140.38844491 -168.14024544 140.44031334 C-178.10449132 140.51523455 -188.06774627 140.51822442 -198.03221612 140.50384996 C-214.19973715 140.48247198 -230.36658567 140.51899222 -246.53393555 140.59204102 C-262.23580898 140.6628624 -277.93736696 140.70634244 -293.6394043 140.71313477 C-294.60781335 140.71356318 -295.5762224 140.71399159 -296.57397718 140.71443298 C-301.43236455 140.71641385 -306.2907519 140.71785808 -311.14913952 140.71903551 C-351.43309534 140.72949221 -391.7164042 140.83396145 -432 141 C-432.02312255 129.6738837 -432.04091464 118.34777297 -432.05181217 107.02163792 C-432.05704119 101.76303336 -432.06413918 96.5044449 -432.07543945 91.24584961 C-432.08626766 86.17546873 -432.09227669 81.10510338 -432.09487724 76.03471184 C-432.09673161 74.09573052 -432.10035245 72.15675009 -432.10573006 70.21777534 C-432.1129396 67.5117824 -432.11399098 64.80585444 -432.11352539 62.09985352 C-432.11712067 61.28993454 -432.12071594 60.48001556 -432.12442017 59.64555359 C-432.11405216 54.11405216 -432.11405216 54.11405216 -431 53 C-429.29541262 52.90271023 -427.58675499 52.87628497 -425.87939358 52.87695217 C-424.20437713 52.8739656 -424.20437713 52.8739656 -422.49552196 52.87091869 C-420.63223604 52.87528795 -420.63223604 52.87528795 -418.73130798 52.87974548 C-417.4237168 52.87889106 -416.11612562 52.87803663 -414.76891047 52.87715632 C-411.12265526 52.87490889 -407.47642916 52.87893601 -403.83017766 52.88393438 C-399.90445985 52.88823516 -395.9787438 52.88679272 -392.05302429 52.8860321 C-385.24587042 52.88550663 -378.4387261 52.88865586 -371.63157463 52.89426994 C-361.78946132 52.9023818 -351.94735265 52.90499984 -342.10523636 52.90625793 C-326.13875847 52.90844895 -310.17228567 52.91511037 -294.20581055 52.92456055 C-278.69181341 52.93373339 -263.17781766 52.94081484 -247.66381836 52.94506836 C-246.7082425 52.94533108 -245.75266664 52.94559381 -244.76813393 52.94586449 C-239.97450177 52.94716949 -235.1808696 52.9484332 -230.38723743 52.94967639 C-190.59148805 52.96005055 -150.79574436 52.97767021 -111 53 C-110.85232178 52.38374756 -110.70464355 51.76749512 -110.55249023 51.13256836 C-105.99767747 33.55135338 -88.78550522 17.02621839 -73.73828125 8.0703125 C-51.79705904 -4.36633687 -24.06788913 -9.74176465 0 0 Z " fill="#03ADD6" transform="translate(798,611)"/>
<path d="M0 0 C170.61 0 341.22 0 517 0 C517 28.38 517 56.76 517 86 C346.39 86 175.78 86 0 86 C0 57.62 0 29.24 0 0 Z " fill="#03C4C3" transform="translate(365,444)"/>
</svg>
